<?xml version="1.0" encoding="utf-8"?>
<!-- Generator: Adobe Illustrator 25.2.0, SVG Export Plug-In . SVG Version: 6.00 Build 0)  -->
<svg version="1.1" id="Capa_1" xmlns="http://www.w3.org/2000/svg" xmlns:xlink="http://www.w3.org/1999/xlink" x="0px" y="0px"
	 viewBox="0 0 32 32" style="enable-background:new 0 0 32 32;" xml:space="preserve">
<style type="text/css">
	.st0{fill:#C0181F;}
</style>
<path class="st0" d="M29.4,25.4l-6.9-6.9c1-1.7,1.5-3.6,1.5-5.5c0-6.1-4.9-11-11-11C6.9,2,2,6.9,2,13c0,6.1,4.9,11,11,11
	c1.9,0,3.8-0.5,5.5-1.5l6.9,6.9c0.4,0.4,0.9,0.6,1.5,0.6c0.8,0,1.6-0.4,2.2-1C30.1,28.1,30.3,26.5,29.4,25.4z M18.4,20.2
	C16.9,21.4,15,22,13,22c-5,0-9-4-9-9s4-9,9-9s9,4,9,9c0,1.9-0.6,3.8-1.8,5.4C19.7,19.1,19.1,19.7,18.4,20.2L18.4,20.2z M27.7,27.6
	c-0.2,0.3-0.5,0.4-0.8,0.4l-6.7-6.6l0,0l1.2-1.2h0l6.6,6.7C28,27.1,27.9,27.4,27.7,27.6L27.7,27.6z"/>
</svg>
